<?xml version="1.0" encoding="UTF-8"?>
<svg id="_レイヤー_2" data-name="レイヤー 2" xmlns="http://www.w3.org/2000/svg" viewBox="0 0 602.73 392.28">
  <defs>
    <style>
      .cls-1 {
        fill: #8c6239;
      }
    </style>
  </defs>
  <g id="_レイヤー_1-2" data-name="レイヤー 1">
    <path class="cls-1" d="M4.35,103.95c68.97,9.61,139.68-14.75,187.34-65.77,8.4-8.99,16.05-18.71,22.81-28.98,3.69-5.6-5.15-12.65-9.42-7.27-15.74,19.79-24.12,44.65-23.2,69.98s10.64,47.39,27.05,65.57c15.96,17.69,38,30.63,62.02,32.6,20.56,1.69,40.98-5.15,58.89-14.75,16.71-8.95,31.85-20.67,46.06-33.14,4.96-4.36,9.78-8.87,14.68-13.3,1.51-1.37,3.01-2.78,4.63-4.02-1.82,1.4.49-.39.56-.31.15.18-.94.07-.82.33,2.46,5.33-8.52-7.05-6.5-7.54-.82.2.9-.85.04-.04-.35.33-.64.75-.97,1.1-.87.91-1.73,1.82-2.62,2.72-2.41,2.45-4.86,4.87-7.25,7.34-6.45,6.65-12.59,13.65-17.86,21.29-11.26,16.31-17.77,37.52-5.35,55.2,6.25,8.89,15.25,15.13,24.36,20.79,11.59,7.19,24.79,11.97,38.27,14.03,27.22,4.16,55.67-1.48,78.38-17.33l-8.21-8.21c-23.56,37.37-29.54,84.9-11.9,125.9,15.84,36.8,49.68,61.42,88.5,69.17,10.82,2.16,22.05,3.39,33.1,2.88,7.69-.35,7.73-12.35,0-12-22.97,1.05-47.04-4.59-66.98-15.98-34.63-19.79-53.73-57.78-52.96-97.18.46-23.75,7.97-46.7,20.6-66.72,3.09-4.9-3.23-11.69-8.21-8.21-19.28,13.46-42.88,19.09-66.21,16.5-19.82-2.2-41.15-11.29-55.14-25.87-14.39-14.99-7.49-33.5,3.13-48.34,4.83-6.75,10.51-12.87,16.31-18.79,3.66-3.73,8.36-7.41,11.15-11.9,3.19-5.12-.41-12.16-6.95-10.33-3.51.98-6.51,4.29-9.13,6.65-10.69,9.63-21.18,19.47-32.7,28.12-15.26,11.46-32.02,21.72-50.51,26.94-20.63,5.83-41.38,3.37-59.85-7.7-22.35-13.41-39.06-36.16-44.08-61.81-5.09-25.97,1.67-54.4,18.15-75.13l-9.42-7.27c-34.58,52.48-93.22,86.68-156.02,90.62-13.37.84-27.88.39-40.58-1.38-7.55-1.05-10.82,10.51-3.19,11.57h0Z"/>
  </g>
</svg>